<?xml version="1.0" encoding="UTF-8" standalone="no"?>
<!DOCTYPE svg PUBLIC "-//W3C//DTD SVG 1.1//EN"
 "http://www.w3.org/Graphics/SVG/1.1/DTD/svg11.dtd">
<!-- Generated by graphviz version 12.2.1 (20241206.2353)
 -->
<!-- Title: G Pages: 1 -->
<svg width="625pt" height="571pt"
 viewBox="0.00 0.00 624.95 570.95" xmlns="http://www.w3.org/2000/svg" xmlns:xlink="http://www.w3.org/1999/xlink">
<g id="graph0" class="graph" transform="scale(1 1) rotate(0) translate(21.6 549.35)">
<title>G</title>
<polygon fill="#111111" stroke="none" points="-21.6,21.6 -21.6,-549.35 603.35,-549.35 603.35,21.6 -21.6,21.6"/>
<!-- commitlint.config.js -->
<g id="node1" class="node">
<title>commitlint.config.js</title>
<path fill="none" stroke="#cfffac" d="M177.21,-107.75C177.21,-107.75 61.54,-107.75 61.54,-107.75 57.58,-107.75 53.62,-103.79 53.62,-99.83 53.62,-99.83 53.62,-91.92 53.62,-91.92 53.62,-87.96 57.58,-84 61.54,-84 61.54,-84 177.21,-84 177.21,-84 181.17,-84 185.12,-87.96 185.12,-91.92 185.12,-91.92 185.12,-99.83 185.12,-99.83 185.12,-103.79 181.17,-107.75 177.21,-107.75"/>
<text text-anchor="middle" x="119.38" y="-90.45" font-family="Arial" font-size="14.00" fill="#cfffac">commitlint.config.js</text>
</g>
<!-- eslint.config.js -->
<g id="node2" class="node">
<title>eslint.config.js</title>
<path fill="none" stroke="#cfffac" d="M161.83,-149.75C161.83,-149.75 76.92,-149.75 76.92,-149.75 72.96,-149.75 69,-145.79 69,-141.83 69,-141.83 69,-133.92 69,-133.92 69,-129.96 72.96,-126 76.92,-126 76.92,-126 161.83,-126 161.83,-126 165.79,-126 169.75,-129.96 169.75,-133.92 169.75,-133.92 169.75,-141.83 169.75,-141.83 169.75,-145.79 165.79,-149.75 161.83,-149.75"/>
<text text-anchor="middle" x="119.38" y="-132.45" font-family="Arial" font-size="14.00" fill="#cfffac">eslint.config.js</text>
</g>
<!-- extension/.template&#45;lintrc.js -->
<g id="node3" class="node">
<title>extension/.template&#45;lintrc.js</title>
<path fill="none" stroke="#cfffac" d="M201.58,-191.75C201.58,-191.75 37.17,-191.75 37.17,-191.75 33.21,-191.75 29.25,-187.79 29.25,-183.83 29.25,-183.83 29.25,-175.92 29.25,-175.92 29.25,-171.96 33.21,-168 37.17,-168 37.17,-168 201.58,-168 201.58,-168 205.54,-168 209.5,-171.96 209.5,-175.92 209.5,-175.92 209.5,-183.83 209.5,-183.83 209.5,-187.79 205.54,-191.75 201.58,-191.75"/>
<text text-anchor="middle" x="119.38" y="-174.45" font-family="Arial" font-size="14.00" fill="#cfffac">extension/.template&#45;lintrc.js</text>
</g>
<!-- extension/src/agents/CoderAgent.js -->
<g id="node4" class="node">
<title>extension/src/agents/CoderAgent.js</title>
<path fill="none" stroke="#cfffac" d="M534.83,-443.75C534.83,-443.75 321.67,-443.75 321.67,-443.75 317.71,-443.75 313.75,-439.79 313.75,-435.83 313.75,-435.83 313.75,-427.92 313.75,-427.92 313.75,-423.96 317.71,-420 321.67,-420 321.67,-420 534.83,-420 534.83,-420 538.79,-420 542.75,-423.96 542.75,-427.92 542.75,-427.92 542.75,-435.83 542.75,-435.83 542.75,-439.79 538.79,-443.75 534.83,-443.75"/>
<text text-anchor="middle" x="428.25" y="-426.45" font-family="Arial" font-size="14.00" fill="#cfffac">extension/src/agents/CoderAgent.js</text>
</g>
<!-- extension/src/agents/CriticAgent.js -->
<g id="node5" class="node">
<title>extension/src/agents/CriticAgent.js</title>
<path fill="none" stroke="#cfffac" d="M531.83,-401.75C531.83,-401.75 324.67,-401.75 324.67,-401.75 320.71,-401.75 316.75,-397.79 316.75,-393.83 316.75,-393.83 316.75,-385.92 316.75,-385.92 316.75,-381.96 320.71,-378 324.67,-378 324.67,-378 531.83,-378 531.83,-378 535.79,-378 539.75,-381.96 539.75,-385.92 539.75,-385.92 539.75,-393.83 539.75,-393.83 539.75,-397.79 535.79,-401.75 531.83,-401.75"/>
<text text-anchor="middle" x="428.25" y="-384.45" font-family="Arial" font-size="14.00" fill="#cfffac">extension/src/agents/CriticAgent.js</text>
</g>
<!-- extension/src/agents/DeployerAgent.js -->
<g id="node6" class="node">
<title>extension/src/agents/DeployerAgent.js</title>
<path fill="none" stroke="#cfffac" d="M543.46,-359.75C543.46,-359.75 313.04,-359.75 313.04,-359.75 309.08,-359.75 305.12,-355.79 305.12,-351.83 305.12,-351.83 305.12,-343.92 305.12,-343.92 305.12,-339.96 309.08,-336 313.04,-336 313.04,-336 543.46,-336 543.46,-336 547.42,-336 551.38,-339.96 551.38,-343.92 551.38,-343.92 551.38,-351.83 551.38,-351.83 551.38,-355.79 547.42,-359.75 543.46,-359.75"/>
<text text-anchor="middle" x="428.25" y="-342.45" font-family="Arial" font-size="14.00" fill="#cfffac">extension/src/agents/DeployerAgent.js</text>
</g>
<!-- extension/src/agents/PlannerAgent.js -->
<g id="node7" class="node">
<title>extension/src/agents/PlannerAgent.js</title>
<path fill="none" stroke="#cfffac" d="M539.71,-317.75C539.71,-317.75 316.79,-317.75 316.79,-317.75 312.83,-317.75 308.88,-313.79 308.88,-309.83 308.88,-309.83 308.88,-301.92 308.88,-301.92 308.88,-297.96 312.83,-294 316.79,-294 316.79,-294 539.71,-294 539.71,-294 543.67,-294 547.62,-297.96 547.62,-301.92 547.62,-301.92 547.62,-309.83 547.62,-309.83 547.62,-313.79 543.67,-317.75 539.71,-317.75"/>
<text text-anchor="middle" x="428.25" y="-300.45" font-family="Arial" font-size="14.00" fill="#cfffac">extension/src/agents/PlannerAgent.js</text>
</g>
<!-- extension/src/agents/ScaffolderAgent.js -->
<g id="node8" class="node">
<title>extension/src/agents/ScaffolderAgent.js</title>
<path fill="none" stroke="#cfffac" d="M546.83,-275.75C546.83,-275.75 309.67,-275.75 309.67,-275.75 305.71,-275.75 301.75,-271.79 301.75,-267.83 301.75,-267.83 301.75,-259.92 301.75,-259.92 301.75,-255.96 305.71,-252 309.67,-252 309.67,-252 546.83,-252 546.83,-252 550.79,-252 554.75,-255.96 554.75,-259.92 554.75,-259.92 554.75,-267.83 554.75,-267.83 554.75,-271.79 550.79,-275.75 546.83,-275.75"/>
<text text-anchor="middle" x="428.25" y="-258.45" font-family="Arial" font-size="14.00" fill="#cfffac">extension/src/agents/ScaffolderAgent.js</text>
</g>
<!-- extension/src/agents/TesterAgent.js -->
<g id="node9" class="node">
<title>extension/src/agents/TesterAgent.js</title>
<path fill="none" stroke="#cfffac" d="M534.83,-233.75C534.83,-233.75 321.67,-233.75 321.67,-233.75 317.71,-233.75 313.75,-229.79 313.75,-225.83 313.75,-225.83 313.75,-217.92 313.75,-217.92 313.75,-213.96 317.71,-210 321.67,-210 321.67,-210 534.83,-210 534.83,-210 538.79,-210 542.75,-213.96 542.75,-217.92 542.75,-217.92 542.75,-225.83 542.75,-225.83 542.75,-229.79 538.79,-233.75 534.83,-233.75"/>
<text text-anchor="middle" x="428.25" y="-216.45" font-family="Arial" font-size="14.00" fill="#cfffac">extension/src/agents/TesterAgent.js</text>
</g>
<!-- extension/src/index.js -->
<g id="node10" class="node">
<title>extension/src/index.js</title>
<path fill="none" stroke="#c6c5fe" d="M183.96,-233.75C183.96,-233.75 54.79,-233.75 54.79,-233.75 50.83,-233.75 46.88,-229.79 46.88,-225.83 46.88,-225.83 46.88,-217.92 46.88,-217.92 46.88,-213.96 50.83,-210 54.79,-210 54.79,-210 183.96,-210 183.96,-210 187.92,-210 191.88,-213.96 191.88,-217.92 191.88,-217.92 191.88,-225.83 191.88,-225.83 191.88,-229.79 187.92,-233.75 183.96,-233.75"/>
<text text-anchor="middle" x="119.38" y="-216.45" font-family="Arial" font-size="14.00" fill="#c6c5fe">extension/src/index.js</text>
</g>
<!-- extension/src/index.js&#45;&gt;extension/src/agents/CoderAgent.js -->
<g id="edge1" class="edge">
<title>extension/src/index.js&#45;&gt;extension/src/agents/CoderAgent.js</title>
<path fill="none" stroke="#757575" d="M185.18,-234.25C204.79,-240.93 224.81,-251.18 238.75,-266.88 282.56,-316.2 225.65,-366.82 274.75,-410.88 282.94,-418.23 292.45,-423.76 302.63,-427.86"/>
<polygon fill="#757575" stroke="#757575" points="301.44,-431.15 312.03,-431.14 303.74,-424.54 301.44,-431.15"/>
</g>
<!-- extension/src/index.js&#45;&gt;extension/src/agents/CriticAgent.js -->
<g id="edge2" class="edge">
<title>extension/src/index.js&#45;&gt;extension/src/agents/CriticAgent.js</title>
<path fill="none" stroke="#757575" d="M181.87,-234.22C202.18,-240.94 223.47,-251.22 238.75,-266.88 272.33,-301.27 237.5,-338.49 274.75,-368.88 283.93,-376.36 294.51,-381.89 305.72,-385.9"/>
<polygon fill="#757575" stroke="#757575" points="304.6,-389.22 315.19,-388.86 306.68,-382.54 304.6,-389.22"/>
</g>
<!-- extension/src/index.js&#45;&gt;extension/src/agents/DeployerAgent.js -->
<g id="edge3" class="edge">
<title>extension/src/index.js&#45;&gt;extension/src/agents/DeployerAgent.js</title>
<path fill="none" stroke="#757575" d="M174.76,-234.23C196.41,-241.15 220.46,-251.57 238.75,-266.88 262.6,-286.83 248.8,-309.74 274.75,-326.88 280.97,-330.98 287.64,-334.44 294.6,-337.35"/>
<polygon fill="#757575" stroke="#757575" points="292.96,-340.47 303.55,-340.69 295.41,-333.92 292.96,-340.47"/>
</g>
<!-- extension/src/index.js&#45;&gt;extension/src/agents/PlannerAgent.js -->
<g id="edge4" class="edge">
<title>extension/src/index.js&#45;&gt;extension/src/agents/PlannerAgent.js</title>
<path fill="none" stroke="#757575" d="M155.45,-234.16C179.2,-242.74 211.17,-254.77 238.75,-266.88 255.13,-274.06 257.66,-279.58 274.75,-284.88 282.21,-287.19 289.96,-289.24 297.82,-291.07"/>
<polygon fill="#757575" stroke="#757575" points="297.02,-294.48 307.53,-293.19 298.51,-287.64 297.02,-294.48"/>
</g>
<!-- extension/src/index.js&#45;&gt;extension/src/agents/ScaffolderAgent.js -->
<g id="edge5" class="edge">
<title>extension/src/index.js&#45;&gt;extension/src/agents/ScaffolderAgent.js</title>
<path fill="none" stroke="#757575" d="M192.32,-231.72C232.09,-237.16 282.14,-244.01 325.81,-249.99"/>
<polygon fill="#757575" stroke="#757575" points="325.18,-253.44 335.56,-251.33 326.13,-246.5 325.18,-253.44"/>
</g>
<!-- extension/src/index.js&#45;&gt;extension/src/agents/TesterAgent.js -->
<g id="edge6" class="edge">
<title>extension/src/index.js&#45;&gt;extension/src/agents/TesterAgent.js</title>
<path fill="none" stroke="#757575" d="M192.32,-221.88C224.99,-221.88 264.61,-221.88 301.93,-221.88"/>
<polygon fill="#757575" stroke="#757575" points="301.91,-225.38 311.91,-221.88 301.91,-218.38 301.91,-225.38"/>
</g>
<!-- extension/src/services/HybridRetrievalService.js -->
<g id="node11" class="node">
<title>extension/src/services/HybridRetrievalService.js</title>
<path fill="none" stroke="#cfffac" d="M571.96,-191.75C571.96,-191.75 284.54,-191.75 284.54,-191.75 280.58,-191.75 276.62,-187.79 276.62,-183.83 276.62,-183.83 276.62,-175.92 276.62,-175.92 276.62,-171.96 280.58,-168 284.54,-168 284.54,-168 571.96,-168 571.96,-168 575.92,-168 579.88,-171.96 579.88,-175.92 579.88,-175.92 579.88,-183.83 579.88,-183.83 579.88,-187.79 575.92,-191.75 571.96,-191.75"/>
<text text-anchor="middle" x="428.25" y="-174.45" font-family="Arial" font-size="14.00" fill="#cfffac">extension/src/services/HybridRetrievalService.js</text>
</g>
<!-- extension/src/index.js&#45;&gt;extension/src/services/HybridRetrievalService.js -->
<g id="edge7" class="edge">
<title>extension/src/index.js&#45;&gt;extension/src/services/HybridRetrievalService.js</title>
<path fill="none" stroke="#757575" d="M192.32,-212.03C232.09,-206.59 282.14,-199.74 325.81,-193.76"/>
<polygon fill="#757575" stroke="#757575" points="326.13,-197.25 335.56,-192.42 325.18,-190.31 326.13,-197.25"/>
</g>
<!-- extension/src/services/InferenceService.js -->
<g id="node12" class="node">
<title>extension/src/services/InferenceService.js</title>
<path fill="none" stroke="#cfffac" d="M553.96,-149.75C553.96,-149.75 302.54,-149.75 302.54,-149.75 298.58,-149.75 294.62,-145.79 294.62,-141.83 294.62,-141.83 294.62,-133.92 294.62,-133.92 294.62,-129.96 298.58,-126 302.54,-126 302.54,-126 553.96,-126 553.96,-126 557.92,-126 561.88,-129.96 561.88,-133.92 561.88,-133.92 561.88,-141.83 561.88,-141.83 561.88,-145.79 557.92,-149.75 553.96,-149.75"/>
<text text-anchor="middle" x="428.25" y="-132.45" font-family="Arial" font-size="14.00" fill="#cfffac">extension/src/services/InferenceService.js</text>
</g>
<!-- extension/src/index.js&#45;&gt;extension/src/services/InferenceService.js -->
<g id="edge8" class="edge">
<title>extension/src/index.js&#45;&gt;extension/src/services/InferenceService.js</title>
<path fill="none" stroke="#757575" d="M192.28,-217.18C208.31,-213.99 224.7,-208.9 238.75,-200.88 260.1,-188.68 253.17,-170.65 274.75,-158.88 277.66,-157.28 280.65,-155.8 283.71,-154.41"/>
<polygon fill="#757575" stroke="#757575" points="284.98,-157.67 292.9,-150.64 282.32,-151.2 284.98,-157.67"/>
</g>
<!-- extension/src/services/MemoryService.js -->
<g id="node13" class="node">
<title>extension/src/services/MemoryService.js</title>
<path fill="none" stroke="#cfffac" d="M550.96,-107.75C550.96,-107.75 305.54,-107.75 305.54,-107.75 301.58,-107.75 297.62,-103.79 297.62,-99.83 297.62,-99.83 297.62,-91.92 297.62,-91.92 297.62,-87.96 301.58,-84 305.54,-84 305.54,-84 550.96,-84 550.96,-84 554.92,-84 558.88,-87.96 558.88,-91.92 558.88,-91.92 558.88,-99.83 558.88,-99.83 558.88,-103.79 554.92,-107.75 550.96,-107.75"/>
<text text-anchor="middle" x="428.25" y="-90.45" font-family="Arial" font-size="14.00" fill="#cfffac">extension/src/services/MemoryService.js</text>
</g>
<!-- extension/src/index.js&#45;&gt;extension/src/services/MemoryService.js -->
<g id="edge9" class="edge">
<title>extension/src/index.js&#45;&gt;extension/src/services/MemoryService.js</title>
<path fill="none" stroke="#757575" d="M192.13,-220.58C208.79,-217.34 225.51,-211.38 238.75,-200.88 270.57,-175.63 242.45,-141.5 274.75,-116.88 278.64,-113.91 282.74,-111.27 287.02,-108.91"/>
<polygon fill="#757575" stroke="#757575" points="288.48,-112.09 295.93,-104.57 285.41,-105.8 288.48,-112.09"/>
</g>
<!-- extension/src/services/MetaLearningController.js -->
<g id="node14" class="node">
<title>extension/src/services/MetaLearningController.js</title>
<path fill="none" stroke="#cfffac" d="M573.83,-65.75C573.83,-65.75 282.67,-65.75 282.67,-65.75 278.71,-65.75 274.75,-61.79 274.75,-57.83 274.75,-57.83 274.75,-49.92 274.75,-49.92 274.75,-45.96 278.71,-42 282.67,-42 282.67,-42 573.83,-42 573.83,-42 577.79,-42 581.75,-45.96 581.75,-49.92 581.75,-49.92 581.75,-57.83 581.75,-57.83 581.75,-61.79 577.79,-65.75 573.83,-65.75"/>
<text text-anchor="middle" x="428.25" y="-48.45" font-family="Arial" font-size="14.00" fill="#cfffac">extension/src/services/MetaLearningController.js</text>
</g>
<!-- extension/src/index.js&#45;&gt;extension/src/services/MetaLearningController.js -->
<g id="edge10" class="edge">
<title>extension/src/index.js&#45;&gt;extension/src/services/MetaLearningController.js</title>
<path fill="none" stroke="#757575" d="M192.17,-221.91C209.13,-218.69 225.96,-212.41 238.75,-200.88 281.99,-161.86 230.76,-113.04 274.75,-74.88 275.57,-74.17 276.4,-73.47 277.24,-72.8"/>
<polygon fill="#757575" stroke="#757575" points="279.24,-75.67 285.43,-67.06 275.23,-69.93 279.24,-75.67"/>
</g>
<!-- extension/src/services/TelemetryService.js -->
<g id="node15" class="node">
<title>extension/src/services/TelemetryService.js</title>
<path fill="none" stroke="#cfffac" d="M555.46,-23.75C555.46,-23.75 301.04,-23.75 301.04,-23.75 297.08,-23.75 293.12,-19.79 293.12,-15.83 293.12,-15.83 293.12,-7.92 293.12,-7.92 293.12,-3.96 297.08,0 301.04,0 301.04,0 555.46,0 555.46,0 559.42,0 563.38,-3.96 563.38,-7.92 563.38,-7.92 563.38,-15.83 563.38,-15.83 563.38,-19.79 559.42,-23.75 555.46,-23.75"/>
<text text-anchor="middle" x="428.25" y="-6.45" font-family="Arial" font-size="14.00" fill="#cfffac">extension/src/services/TelemetryService.js</text>
</g>
<!-- extension/src/index.js&#45;&gt;extension/src/services/TelemetryService.js -->
<g id="edge11" class="edge">
<title>extension/src/index.js&#45;&gt;extension/src/services/TelemetryService.js</title>
<path fill="none" stroke="#757575" d="M192.1,-222.61C209.26,-219.42 226.21,-212.98 238.75,-200.88 293.7,-147.85 218.79,-84.83 274.75,-32.88 277.41,-30.41 280.21,-28.15 283.14,-26.07"/>
<polygon fill="#757575" stroke="#757575" points="284.91,-29.09 291.59,-20.86 281.24,-23.13 284.91,-29.09"/>
</g>
<!-- html/assets/index&#45;Cv3XDLXs.js -->
<g id="node16" class="node">
<title>html/assets/index&#45;Cv3XDLXs.js</title>
<path fill="none" stroke="#cfffac" d="M213.96,-299.75C213.96,-299.75 24.79,-299.75 24.79,-299.75 20.83,-299.75 16.88,-295.79 16.88,-291.83 16.88,-291.83 16.88,-283.92 16.88,-283.92 16.88,-279.96 20.83,-276 24.79,-276 24.79,-276 213.96,-276 213.96,-276 217.92,-276 221.88,-279.96 221.88,-283.92 221.88,-283.92 221.88,-291.83 221.88,-291.83 221.88,-295.79 217.92,-299.75 213.96,-299.75"/>
<text text-anchor="middle" x="119.38" y="-282.45" font-family="Arial" font-size="14.00" fill="#cfffac">html/assets/index&#45;Cv3XDLXs.js</text>
</g>
<!-- lint&#45;staged.config.js -->
<g id="node17" class="node">
<title>lint&#45;staged.config.js</title>
<path fill="none" stroke="#cfffac" d="M177.21,-362.75C177.21,-362.75 61.54,-362.75 61.54,-362.75 57.58,-362.75 53.62,-358.79 53.62,-354.83 53.62,-354.83 53.62,-346.92 53.62,-346.92 53.62,-342.96 57.58,-339 61.54,-339 61.54,-339 177.21,-339 177.21,-339 181.17,-339 185.12,-342.96 185.12,-346.92 185.12,-346.92 185.12,-354.83 185.12,-354.83 185.12,-358.79 181.17,-362.75 177.21,-362.75"/>
<text text-anchor="middle" x="119.38" y="-345.45" font-family="Arial" font-size="14.00" fill="#cfffac">lint&#45;staged.config.js</text>
</g>
<!-- packages/core/scripts/finetune&#45;lora.js -->
<g id="node18" class="node">
<title>packages/core/scripts/finetune&#45;lora.js</title>
<path fill="none" stroke="#cfffac" d="M230.83,-414.75C230.83,-414.75 7.92,-414.75 7.92,-414.75 3.96,-414.75 0,-410.79 0,-406.83 0,-406.83 0,-398.92 0,-398.92 0,-394.96 3.96,-391 7.92,-391 7.92,-391 230.83,-391 230.83,-391 234.79,-391 238.75,-394.96 238.75,-398.92 238.75,-398.92 238.75,-406.83 238.75,-406.83 238.75,-410.79 234.79,-414.75 230.83,-414.75"/>
<text text-anchor="middle" x="119.38" y="-397.45" font-family="Arial" font-size="14.00" fill="#cfffac">packages/core/scripts/finetune&#45;lora.js</text>
</g>
<!-- shared/.eslintrc.js -->
<g id="node19" class="node">
<title>shared/.eslintrc.js</title>
<path fill="none" stroke="#cfffac" d="M171.96,-461.75C171.96,-461.75 66.79,-461.75 66.79,-461.75 62.83,-461.75 58.88,-457.79 58.88,-453.83 58.88,-453.83 58.88,-445.92 58.88,-445.92 58.88,-441.96 62.83,-438 66.79,-438 66.79,-438 171.96,-438 171.96,-438 175.92,-438 179.88,-441.96 179.88,-445.92 179.88,-445.92 179.88,-453.83 179.88,-453.83 179.88,-457.79 175.92,-461.75 171.96,-461.75"/>
<text text-anchor="middle" x="119.38" y="-444.45" font-family="Arial" font-size="14.00" fill="#cfffac">shared/.eslintrc.js</text>
</g>
<!-- shared/src/index.js -->
<g id="node20" class="node">
<title>shared/src/index.js</title>
<path fill="none" stroke="#c6c5fe" d="M175.71,-506.75C175.71,-506.75 63.04,-506.75 63.04,-506.75 59.08,-506.75 55.12,-502.79 55.12,-498.83 55.12,-498.83 55.12,-490.92 55.12,-490.92 55.12,-486.96 59.08,-483 63.04,-483 63.04,-483 175.71,-483 175.71,-483 179.67,-483 183.62,-486.96 183.62,-490.92 183.62,-490.92 183.62,-498.83 183.62,-498.83 183.62,-502.79 179.67,-506.75 175.71,-506.75"/>
<text text-anchor="middle" x="119.38" y="-489.45" font-family="Arial" font-size="14.00" fill="#c6c5fe">shared/src/index.js</text>
</g>
<!-- shared/src/schema/rocketship.schema.json -->
<g id="node21" class="node">
<title>shared/src/schema/rocketship.schema.json</title>
<path fill="none" stroke="#cfffac" d="M558.46,-527.75C558.46,-527.75 298.04,-527.75 298.04,-527.75 294.08,-527.75 290.12,-523.79 290.12,-519.83 290.12,-519.83 290.12,-511.92 290.12,-511.92 290.12,-507.96 294.08,-504 298.04,-504 298.04,-504 558.46,-504 558.46,-504 562.42,-504 566.38,-507.96 566.38,-511.92 566.38,-511.92 566.38,-519.83 566.38,-519.83 566.38,-523.79 562.42,-527.75 558.46,-527.75"/>
<text text-anchor="middle" x="428.25" y="-510.45" font-family="Arial" font-size="14.00" fill="#cfffac">shared/src/schema/rocketship.schema.json</text>
</g>
<!-- shared/src/index.js&#45;&gt;shared/src/schema/rocketship.schema.json -->
<g id="edge12" class="edge">
<title>shared/src/index.js&#45;&gt;shared/src/schema/rocketship.schema.json</title>
<path fill="none" stroke="#757575" d="M183.96,-499.23C211.56,-501.12 245.15,-503.41 278.45,-505.69"/>
<polygon fill="#757575" stroke="#757575" points="278,-509.17 288.22,-506.36 278.48,-502.19 278,-509.17"/>
</g>
<!-- shared/src/types/index.js -->
<g id="node22" class="node">
<title>shared/src/types/index.js</title>
<path fill="none" stroke="#cfffac" d="M502.58,-485.75C502.58,-485.75 353.92,-485.75 353.92,-485.75 349.96,-485.75 346,-481.79 346,-477.83 346,-477.83 346,-469.92 346,-469.92 346,-465.96 349.96,-462 353.92,-462 353.92,-462 502.58,-462 502.58,-462 506.54,-462 510.5,-465.96 510.5,-469.92 510.5,-469.92 510.5,-477.83 510.5,-477.83 510.5,-481.79 506.54,-485.75 502.58,-485.75"/>
<text text-anchor="middle" x="428.25" y="-468.45" font-family="Arial" font-size="14.00" fill="#cfffac">shared/src/types/index.js</text>
</g>
<!-- shared/src/index.js&#45;&gt;shared/src/types/index.js -->
<g id="edge13" class="edge">
<title>shared/src/index.js&#45;&gt;shared/src/types/index.js</title>
<path fill="none" stroke="#757575" d="M183.96,-490.52C227.45,-487.55 285.8,-483.55 334.46,-480.22"/>
<polygon fill="#757575" stroke="#757575" points="334.39,-483.74 344.13,-479.56 333.91,-476.75 334.39,-483.74"/>
</g>
</g>
</svg>
