<?xml version="1.0" encoding="UTF-8"?>
<svg width="900" height="260" viewBox="0 0 900 260" fill="none" xmlns="http://www.w3.org/2000/svg" aria-labelledby="ci-cd-title ci-cd-desc" role="img">
  <title id="ci-cd-title">CI/CD Pipeline Overview</title>
  <desc id="ci-cd-desc">A diagram showing Rocketship's CI/CD pipeline: trigger, build, test, artifact upload, release, and feedback/badges, with automation.</desc>
  <defs>
    <linearGradient id="cyanMagenta" x1="0" y1="0" x2="1" y2="1">
      <stop offset="0%" stop-color="#00fff7"/>
      <stop offset="100%" stop-color="#ff00ea"/>
    </linearGradient>
    <filter id="glow" x="-50%" y="-50%" width="200%" height="200%">
      <feGaussianBlur stdDeviation="4" result="coloredBlur"/>
      <feMerge>
        <feMergeNode in="coloredBlur"/>
        <feMergeNode in="SourceGraphic"/>
      </feMerge>
    </filter>
    <marker id="arrowhead" markerWidth="10" markerHeight="7" refX="10" refY="3.5" orient="auto">
      <polygon points="0 0, 10 3.5, 0 7" fill="#00fff7"/>
    </marker>
    <marker id="arrowheadMagenta" markerWidth="10" markerHeight="7" refX="10" refY="3.5" orient="auto">
      <polygon points="0 0, 10 3.5, 0 7" fill="#ff00ea"/>
    </marker>
  </defs>
  <rect width="900" height="260" rx="24" fill="#23232b"/>
  <!-- Stages -->
  <g font-family="Segoe UI, Arial, sans-serif" font-size="15" font-weight="bold">
    <rect x="60" y="100" width="120" height="44" rx="12" fill="#18181f" stroke="#00fff7" stroke-width="3" filter="url(#glow)"/>
    <text x="120" y="128" text-anchor="middle" fill="#00fff7">Trigger</text>
    <rect x="200" y="60" width="120" height="44" rx="12" fill="#18181f" stroke="#ff00ea" stroke-width="3" filter="url(#glow)"/>
    <text x="260" y="88" text-anchor="middle" fill="#ff00ea">Build</text>
    <rect x="340" y="100" width="120" height="44" rx="12" fill="#18181f" stroke="#00fff7" stroke-width="3" filter="url(#glow)"/>
    <text x="400" y="128" text-anchor="middle" fill="#00fff7">Test</text>
    <rect x="480" y="60" width="120" height="44" rx="12" fill="#18181f" stroke="#ff00ea" stroke-width="3" filter="url(#glow)"/>
    <text x="540" y="88" text-anchor="middle" fill="#ff00ea">Artifact</text>
    <rect x="620" y="100" width="120" height="44" rx="12" fill="#18181f" stroke="#00fff7" stroke-width="3" filter="url(#glow)"/>
    <text x="680" y="128" text-anchor="middle" fill="#00fff7">Release</text>
    <rect x="760" y="160" width="120" height="44" rx="12" fill="#18181f" stroke="#ff00ea" stroke-width="3" filter="url(#glow)"/>
    <text x="820" y="188" text-anchor="middle" fill="#ff00ea">Feedback</text>
  </g>
  <!-- Arrows -->
  <g>
    <line x1="180" y1="122" x2="200" y2="82" stroke="url(#cyanMagenta)" stroke-width="3" marker-end="url(#arrowhead)"/>
    <line x1="320" y1="82" x2="340" y2="122" stroke="url(#cyanMagenta)" stroke-width="3" marker-end="url(#arrowhead)"/>
    <line x1="460" y1="82" x2="480" y2="82" stroke="url(#cyanMagenta)" stroke-width="3" marker-end="url(#arrowhead)"/>
    <line x1="600" y1="82" x2="620" y2="122" stroke="url(#cyanMagenta)" stroke-width="3" marker-end="url(#arrowhead)"/>
    <line x1="740" y1="122" x2="760" y2="182" stroke="url(#cyanMagenta)" stroke-width="3" marker-end="url(#arrowhead)"/>
    <line x1="820" y1="204" x2="120" y2="144" stroke="#ff00ea" stroke-width="3" marker-end="url(#arrowheadMagenta)"/>
  </g>
  <!-- Automation boundary -->
  <g>
    <rect x="190" y="50" width="570" height="64" rx="18" fill="#00fff7" fill-opacity="0.08" stroke="#00fff7" stroke-width="2" stroke-dasharray="8 4"/>
    <text x="480" y="60" text-anchor="middle" font-size="12" fill="#00fff7">Automation</text>
  </g>
  <!-- Legend -->
  <rect x="60" y="210" width="780" height="22" rx="8" fill="#23232b" stroke="url(#cyanMagenta)" stroke-width="2"/>
  <text x="450" y="226" text-anchor="middle" font-size="13" fill="#fff">Cyan = Core Flow, Magenta = Feedback/Automation, Dashed = Automation Boundary</text>
</svg>