<?xml version="1.0" encoding="UTF-8"?>
<svg width="900" height="260" viewBox="0 0 900 260" fill="none" xmlns="http://www.w3.org/2000/svg" aria-labelledby="plugins-title plugins-desc" role="img">
  <title id="plugins-title">Plugin Lifecycle and Extension Points</title>
  <desc id="plugins-desc">A diagram showing the Rocketship plugin lifecycle: discovery, validation, activation, hot-reload, and extension points, with security and governance boundaries.</desc>
  <defs>
    <linearGradient id="cyanMagenta" x1="0" y1="0" x2="1" y2="1">
      <stop offset="0%" stop-color="#00fff7"/>
      <stop offset="100%" stop-color="#ff00ea"/>
    </linearGradient>
    <filter id="glow" x="-50%" y="-50%" width="200%" height="200%">
      <feGaussianBlur stdDeviation="4" result="coloredBlur"/>
      <feMerge>
        <feMergeNode in="coloredBlur"/>
        <feMergeNode in="SourceGraphic"/>
      </feMerge>
    </filter>
    <marker id="arrowhead" markerWidth="10" markerHeight="7" refX="10" refY="3.5" orient="auto">
      <polygon points="0 0, 10 3.5, 0 7" fill="#00fff7"/>
    </marker>
    <marker id="arrowheadMagenta" markerWidth="10" markerHeight="7" refX="10" refY="3.5" orient="auto">
      <polygon points="0 0, 10 3.5, 0 7" fill="#ff00ea"/>
    </marker>
  </defs>
  <rect width="900" height="260" rx="24" fill="#23232b"/>
  <!-- Stages -->
  <g font-family="Segoe UI, Arial, sans-serif" font-size="15" font-weight="bold">
    <rect x="60" y="100" width="120" height="44" rx="12" fill="#18181f" stroke="#00fff7" stroke-width="3" filter="url(#glow)"/>
    <text x="120" y="128" text-anchor="middle" fill="#00fff7">Discovery</text>
    <rect x="220" y="60" width="120" height="44" rx="12" fill="#18181f" stroke="#ff00ea" stroke-width="3" filter="url(#glow)"/>
    <text x="280" y="88" text-anchor="middle" fill="#ff00ea">Validation</text>
    <rect x="380" y="100" width="120" height="44" rx="12" fill="#18181f" stroke="#00fff7" stroke-width="3" filter="url(#glow)"/>
    <text x="440" y="128" text-anchor="middle" fill="#00fff7">Activation</text>
    <rect x="540" y="60" width="120" height="44" rx="12" fill="#18181f" stroke="#ff00ea" stroke-width="3" filter="url(#glow)"/>
    <text x="600" y="88" text-anchor="middle" fill="#ff00ea">Hot-Reload</text>
    <rect x="700" y="100" width="140" height="44" rx="12" fill="#18181f" stroke="#00fff7" stroke-width="3" filter="url(#glow)"/>
    <text x="770" y="128" text-anchor="middle" fill="#00fff7">Extension Points</text>
  </g>
  <!-- Arrows -->
  <g>
    <line x1="180" y1="122" x2="220" y2="82" stroke="url(#cyanMagenta)" stroke-width="3" marker-end="url(#arrowhead)"/>
    <line x1="340" y1="82" x2="380" y2="122" stroke="url(#cyanMagenta)" stroke-width="3" marker-end="url(#arrowhead)"/>
    <line x1="500" y1="82" x2="540" y2="82" stroke="url(#cyanMagenta)" stroke-width="3" marker-end="url(#arrowhead)"/>
    <line x1="660" y1="82" x2="700" y2="122" stroke="url(#cyanMagenta)" stroke-width="3" marker-end="url(#arrowhead)"/>
    <line x1="660" y1="122" x2="540" y2="82" stroke="#ff00ea" stroke-width="3" marker-end="url(#arrowheadMagenta)"/>
    <line x1="860" y1="122" x2="380" y2="122" stroke="#ff00ea" stroke-width="3" marker-end="url(#arrowheadMagenta)"/>
  </g>
  <!-- Security/Governance boundaries -->
  <g>
    <rect x="210" y="50" width="460" height="64" rx="18" fill="#ff00ea" fill-opacity="0.08" stroke="#ff00ea" stroke-width="2" stroke-dasharray="8 4"/>
    <text x="440" y="60" text-anchor="middle" font-size="12" fill="#ff00ea">Security & Governance Boundary</text>
  </g>
  <!-- Legend -->
  <rect x="60" y="210" width="780" height="22" rx="8" fill="#23232b" stroke="url(#cyanMagenta)" stroke-width="2"/>
  <text x="450" y="226" text-anchor="middle" font-size="13" fill="#fff">Cyan = Core Flow, Magenta = Security/Governance, Dashed = Boundary</text>
</svg>