<?xml version="1.0" encoding="UTF-8"?>
<svg width="900" height="260" viewBox="0 0 900 260" fill="none" xmlns="http://www.w3.org/2000/svg" aria-labelledby="security-title security-desc" role="img">
  <title id="security-title">Security & Compliance Flows</title>
  <desc id="security-desc">A diagram showing Rocketship's security and compliance flows: SLSA, SBOM generation, CI/CD, vulnerability scanning, release, and compliance reporting.</desc>
  <defs>
    <linearGradient id="cyanMagenta" x1="0" y1="0" x2="1" y2="1">
      <stop offset="0%" stop-color="#00fff7"/>
      <stop offset="100%" stop-color="#ff00ea"/>
    </linearGradient>
    <filter id="glow" x="-50%" y="-50%" width="200%" height="200%">
      <feGaussianBlur stdDeviation="4" result="coloredBlur"/>
      <feMerge>
        <feMergeNode in="coloredBlur"/>
        <feMergeNode in="SourceGraphic"/>
      </feMerge>
    </filter>
    <marker id="arrowhead" markerWidth="10" markerHeight="7" refX="10" refY="3.5" orient="auto">
      <polygon points="0 0, 10 3.5, 0 7" fill="#00fff7"/>
    </marker>
    <marker id="arrowheadMagenta" markerWidth="10" markerHeight="7" refX="10" refY="3.5" orient="auto">
      <polygon points="0 0, 10 3.5, 0 7" fill="#ff00ea"/>
    </marker>
  </defs>
  <rect width="900" height="260" rx="24" fill="#23232b"/>
  <!-- Stages -->
  <g font-family="Segoe UI, Arial, sans-serif" font-size="15" font-weight="bold">
    <rect x="60" y="100" width="120" height="44" rx="12" fill="#18181f" stroke="#00fff7" stroke-width="3" filter="url(#glow)"/>
    <text x="120" y="128" text-anchor="middle" fill="#00fff7">SLSA Provenance</text>
    <rect x="220" y="60" width="120" height="44" rx="12" fill="#18181f" stroke="#ff00ea" stroke-width="3" filter="url(#glow)"/>
    <text x="280" y="88" text-anchor="middle" fill="#ff00ea">SBOM</text>
    <rect x="380" y="100" width="120" height="44" rx="12" fill="#18181f" stroke="#00fff7" stroke-width="3" filter="url(#glow)"/>
    <text x="440" y="128" text-anchor="middle" fill="#00fff7">CI/CD</text>
    <rect x="540" y="60" width="120" height="44" rx="12" fill="#18181f" stroke="#ff00ea" stroke-width="3" filter="url(#glow)"/>
    <text x="600" y="88" text-anchor="middle" fill="#ff00ea">Vuln Scan</text>
    <rect x="700" y="100" width="120" height="44" rx="12" fill="#18181f" stroke="#00fff7" stroke-width="3" filter="url(#glow)"/>
    <text x="760" y="128" text-anchor="middle" fill="#00fff7">Release</text>
    <rect x="380" y="180" width="120" height="44" rx="12" fill="#18181f" stroke="#ff00ea" stroke-width="3" filter="url(#glow)"/>
    <text x="440" y="208" text-anchor="middle" fill="#ff00ea">Compliance</text>
  </g>
  <!-- Arrows -->
  <g>
    <line x1="180" y1="122" x2="220" y2="82" stroke="url(#cyanMagenta)" stroke-width="3" marker-end="url(#arrowhead)"/>
    <line x1="340" y1="82" x2="380" y2="122" stroke="url(#cyanMagenta)" stroke-width="3" marker-end="url(#arrowhead)"/>
    <line x1="500" y1="82" x2="540" y2="82" stroke="url(#cyanMagenta)" stroke-width="3" marker-end="url(#arrowhead)"/>
    <line x1="660" y1="122" x2="700" y2="122" stroke="url(#cyanMagenta)" stroke-width="3" marker-end="url(#arrowhead)"/>
    <line x1="760" y1="144" x2="440" y2="180" stroke="#ff00ea" stroke-width="3" marker-end="url(#arrowheadMagenta)"/>
    <line x1="440" y1="224" x2="120" y2="144" stroke="#ff00ea" stroke-width="3" marker-end="url(#arrowheadMagenta)"/>
  </g>
  <!-- Legend -->
  <rect x="60" y="210" width="780" height="22" rx="8" fill="#23232b" stroke="url(#cyanMagenta)" stroke-width="2"/>
  <text x="450" y="226" text-anchor="middle" font-size="13" fill="#fff">Cyan = Core Flow, Magenta = Compliance/Feedback</text>
</svg>